<svg id="logo" xmlns="http://www.w3.org/2000/svg" width="237.716" height="110.214" viewBox="0 0 237.716 110.214">
  <g id="Group_75" data-name="Group 75" transform="translate(104.25)">
    <rect id="Rectangle_1201" data-name="Rectangle 1201" width="74.343" height="74.343" rx="16.952" transform="matrix(0.922, 0.387, -0.387, 0.922, 28.749, 0)" fill="#3c094b"/>
    <g id="Group_74" data-name="Group 74" transform="translate(16.669 17.645)">
      <circle id="Ellipse_202" data-name="Ellipse 202" cx="8.807" cy="8.807" r="8.807" transform="translate(0 30.292)" fill="#540572"/>
      <circle id="Ellipse_203" data-name="Ellipse 203" cx="8.807" cy="8.807" r="8.807" transform="translate(33.654 44.404)" fill="#540572"/>
      <circle id="Ellipse_204" data-name="Ellipse 204" cx="8.807" cy="8.807" r="8.807" transform="translate(12.702)" fill="#540572"/>
      <circle id="Ellipse_205" data-name="Ellipse 205" cx="8.807" cy="8.807" r="8.807" transform="translate(46.357 14.112)" fill="#540572"/>
    </g>
  </g>
  <g id="Group_77" data-name="Group 77" transform="translate(41.104 16.356)">
    <rect id="Rectangle_1202" data-name="Rectangle 1202" width="74.343" height="74.343" rx="16.952" transform="translate(0 23.239) rotate(-18.216)" fill="#3c094b"/>
    <g id="Group_76" data-name="Group 76" transform="translate(15.655 16.817)">
      <circle id="Ellipse_206" data-name="Ellipse 206" cx="8.807" cy="8.807" r="8.807" transform="translate(10.268 42.609)" fill="#540572"/>
      <circle id="Ellipse_207" data-name="Ellipse 207" cx="8.807" cy="8.807" r="8.807" transform="translate(44.933 31.201)" fill="#540572"/>
      <circle id="Ellipse_208" data-name="Ellipse 208" cx="8.807" cy="8.807" r="8.807" transform="translate(0 11.408)" fill="#540572"/>
      <circle id="Ellipse_209" data-name="Ellipse 209" cx="8.807" cy="8.807" r="8.807" transform="translate(34.665)" fill="#540572"/>
    </g>
  </g>
  <g id="Group_79" data-name="Group 79" transform="translate(0 38.931)">
    <g id="Group_78" data-name="Group 78" transform="translate(0 0)">
      <path id="Path_250" data-name="Path 250" d="M792.631,463.346q-.552-.113-1.1-.249a21.844,21.844,0,0,1-7.6-3.462,17.427,17.427,0,0,1-6.523-7.834,19.207,19.207,0,0,1-1.305-9.429l.012-.106a27.849,27.849,0,0,1,1.939-7.4,25.2,25.2,0,0,1,4.161-6.785,23,23,0,0,1,6.712-5.326,22.4,22.4,0,0,1,9.518-2.518l.177-.008.243,0a33.568,33.568,0,0,1,7.034.723,25.052,25.052,0,0,1,6.982,2.576,19.748,19.748,0,0,1,5.82,4.851,15.253,15.253,0,0,1,3.281,7.577,15.483,15.483,0,0,1-.134,5.164,15.289,15.289,0,0,1-2.085,5.24l-.094.149-.137.2a16.426,16.426,0,0,1-2,2.355,10.88,10.88,0,0,1-.745,4.156q-.131.341-.261.682a1.349,1.349,0,0,1-.131.257l-.4.611a18.832,18.832,0,0,1-7.6,6.679,23.711,23.711,0,0,1-8.516,2.338A25.853,25.853,0,0,1,792.631,463.346Z" transform="translate(-584.42 -399.823)" fill="#3c094b"/>
      <path id="Path_252" data-name="Path 252" d="M755.705,457.034a30.084,30.084,0,0,1-6.875-1.846l-.24-.1c-.032-.013-.063-.026-.095-.042l-.232-.115a18.836,18.836,0,0,1-8.553-8.042,21.386,21.386,0,0,1-2.364-10.907s.01-.287.013-.318l.023-.226a27.144,27.144,0,0,1,2.126-8.12,25.8,25.8,0,0,1,4.688-7.21,25.093,25.093,0,0,1,16.774-8l.149-.009a28.205,28.205,0,0,1,5.906.324,28.989,28.989,0,0,1,5.96,1.593,22.884,22.884,0,0,1,5.6,3.091,14.507,14.507,0,0,1,4.7,5.893,11.926,11.926,0,0,1,.309,8.375,15.225,15.225,0,0,1-4.293,6.417,12.269,12.269,0,0,1-.98,7.695s-.111.246-.124.27l-.1.188a20.437,20.437,0,0,1-6.529,7.547,21.236,21.236,0,0,1-7.91,3.354A23.415,23.415,0,0,1,755.705,457.034Z" transform="translate(-572.142 -397.233)" fill="#3c094b"/>
      <path id="Path_254" data-name="Path 254" d="M727.319,447.977a18.79,18.79,0,0,1-5.5-1.432l-.125-.053-.173-.081a10.241,10.241,0,0,1-5.44-5.707,10.563,10.563,0,0,1-.354-6.226,13.3,13.3,0,0,1,1.687-3.937,25.4,25.4,0,0,1,1.5-2.163l.151-.2c.021-.027.043-.054.066-.08,0,0,.205-.227.219-.246l.045-.169c.328-1.169.671-2.321,1.025-3.442.186-.592.368-1.189.542-1.785a10.6,10.6,0,0,1-.226-8.395A11.136,11.136,0,0,1,724,409.687q-.065-.348-.11-.7l-.011-.089a11.08,11.08,0,0,1,3.762-9.7,13.708,13.708,0,0,1,4.1-2.456,14.589,14.589,0,0,1,5.353-.955l.2,0q.8.02,1.58.107a17.346,17.346,0,0,1,6.139,1.85,12.523,12.523,0,0,1,6.278,7.238l.089.271c.012.038.023.075.031.113.021.093.043.186.064.278a10.718,10.718,0,0,1-.283,5.94,12.24,12.24,0,0,1-2.293,4.027,10.448,10.448,0,0,1,.031,3.133,17.148,17.148,0,0,1-.89,3.669c-.358,1.084-.78,2.308-1.29,3.742q-.727,2.044-1.513,4.2c-.328.9-.614,1.737-.852,2.492a11.345,11.345,0,0,1,.332,5.037,12.072,12.072,0,0,1-2.279,5.35,12.657,12.657,0,0,1-10.371,5.038l-.145,0-.192-.01q-2.2-.128-3.884-.238C727.669,448.009,727.494,447.995,727.319,447.977Z" transform="translate(-565.18 -392.06)" fill="#3c094b"/>
      <path id="Path_256" data-name="Path 256" d="M680.926,445.848c-1.152-.036-2.3-.113-3.4-.228a24.778,24.778,0,0,1-4.623-.925,12.687,12.687,0,0,1-5.474-3.2,11.2,11.2,0,0,1-3.165-6.257,11.61,11.61,0,0,1,.84-6.279,14.552,14.552,0,0,1,3.4-4.826q.256-.246.508-.474c.388-2.364.778-4.645,1.172-6.872.351-1.986.7-3.971,1.035-5.927a11.179,11.179,0,0,1-1.647-3.206,12.37,12.37,0,0,1-.388-5.868c.655-4.687,3.89-8.469,8.924-10.239l.16-.055A22.2,22.2,0,0,1,683,390.488a32.749,32.749,0,0,1,3.865-.156c.3.005.588.014.876.027.365.015.73.035,1.1.059a1.637,1.637,0,0,1,.6-.085c.023,0,3.384.3,3.383.3,1.6.149,3.22.291,4.808.422a47.306,47.306,0,0,1,5.891.849,32.519,32.519,0,0,1,5.979,1.863,20.627,20.627,0,0,1,6.275,4.143l.188.185.127.136a15.213,15.213,0,0,1,3.715,6.782,20.753,20.753,0,0,1,.548,6.147,31.481,31.481,0,0,1-.833,5.582c-.392,1.632-.845,3.235-1.345,4.764-.476,1.454-.951,2.826-1.415,4.078-.385,1.036-.7,1.939-.935,2.685l-.044.139-.063.177a29.7,29.7,0,0,1-4.6,8.484,22.137,22.137,0,0,1-6.927,5.781,25.1,25.1,0,0,1-7.919,2.571,46.1,46.1,0,0,1-7.754.48l-.223-.007q-1.432-.069-2.914-.04c-1.256.025-2.529.027-3.782.006C681.368,445.86,681.146,445.854,680.926,445.848Z" transform="translate(-548.89 -390.326)" fill="#3c094b"/>
      <path id="Path_258" data-name="Path 258" d="M515.876,460.131c-.937.207-1.9.377-2.861.507a22.44,22.44,0,0,1-5.858.078l-.7-.091a1.364,1.364,0,0,1-.276-.065l-.673-.233a10.993,10.993,0,0,1-7.023-6.192,10.321,10.321,0,0,1,.383-8.32,8.2,8.2,0,0,1,.774-1.685c0-.061,0-.122,0-.184-.061-1.354-.143-2.864-.242-4.5-.106-1.717-.186-3.341-.242-4.827-.056-.85-.1-1.82-.143-2.874-.035-.948-.082-1.918-.139-2.9q-.084-1.43-.173-2.8a11.058,11.058,0,0,1-1.389-1.537,10.22,10.22,0,0,1-2.07-6.352,11.031,11.031,0,0,1,2.171-6.254,15.282,15.282,0,0,1,4.712-4.216s.246-.146.275-.16l.2-.1a35.822,35.822,0,0,1,6.884-2.772c.728-.2,1.483-.382,2.243-.537a37.647,37.647,0,0,1,4.112-.6,13,13,0,0,1,9.239,1.526,10.229,10.229,0,0,1,4.8,7.251,12.782,12.782,0,0,1-.828,6.5,16.455,16.455,0,0,1-2.019,3.7q-.016,1.315-.023,2.722-.013,2.256-.012,4.535,0,2.307,0,4.559,0,2.166-.008,4.134c0,.063.006.126.01.189a10.348,10.348,0,0,1,3.157,6.125,13.493,13.493,0,0,1-1.172,7.249l-.2.465a1.281,1.281,0,0,1-.094.179l-.268.431a12.6,12.6,0,0,1-5.4,4.6,30.85,30.85,0,0,1-4.732,1.819C517.494,459.743,516.685,459.953,515.876,460.131Z" transform="translate(-495.238 -394.443)" fill="#3c094b"/>
      <path id="Path_262" data-name="Path 262" d="M547.156,460.179a38.931,38.931,0,0,1-6.068.549,21.075,21.075,0,0,1-6.892-.987,12.439,12.439,0,0,1-5.7-3.18,13.787,13.787,0,0,1-3.277-5.015,13.462,13.462,0,0,1-.8-6.078,13.161,13.161,0,0,1,2.2-6.123,12.765,12.765,0,0,1-.759-1.547,14.542,14.542,0,0,1-.968-7.456,16.85,16.85,0,0,1,2.542-6.887,18.788,18.788,0,0,1,5.223-5.422,23.615,23.615,0,0,1,6.323-3.208,32.854,32.854,0,0,1,5.74-1.441c.652-.1,1.316-.189,1.976-.256a29.49,29.49,0,0,1,8.4.338,17.559,17.559,0,0,1,8.937,4.4l.128.12.168.172a11.168,11.168,0,0,1,3.092,8.863,13.085,13.085,0,0,1-1.941,5.7,15.831,15.831,0,0,1,1.619,4.214,13.849,13.849,0,0,1,.109,5.953,21.665,21.665,0,0,1-1.379,4.466,21.026,21.026,0,0,1-2.452,4.239,17.941,17.941,0,0,1-3.286,3.41,19.861,19.861,0,0,1-5.781,3.25,37.287,37.287,0,0,1-6.443,1.8Q547.509,460.119,547.156,460.179Z" transform="translate(-504.487 -397.521)" fill="#3c094b"/>
      <path id="Path_266" data-name="Path 266" d="M587.467,454.751a38.776,38.776,0,0,1-6.078.177,21.006,21.006,0,0,1-6.8-1.408A12.419,12.419,0,0,1,569.1,450a13.794,13.794,0,0,1-2.959-5.206,13.494,13.494,0,0,1-.431-6.115,13.159,13.159,0,0,1,2.559-5.977,12.781,12.781,0,0,1-.662-1.591,14.578,14.578,0,0,1-.512-7.5,16.873,16.873,0,0,1,2.949-6.718,18.754,18.754,0,0,1,5.53-5.091,23.545,23.545,0,0,1,6.491-2.815,32.715,32.715,0,0,1,5.806-1.087c.655-.063,1.322-.109,1.984-.134a29.377,29.377,0,0,1,8.35.851,17.528,17.528,0,0,1,8.64,4.933l.12.128.157.182a11.175,11.175,0,0,1,2.544,9.034,13.083,13.083,0,0,1-2.281,5.573,15.865,15.865,0,0,1,1.357,4.306,13.863,13.863,0,0,1-.253,5.948,21.621,21.621,0,0,1-1.646,4.374,21,21,0,0,1-2.7,4.081,17.93,17.93,0,0,1-3.482,3.2,19.818,19.818,0,0,1-5.958,2.89,37.118,37.118,0,0,1-6.527,1.4Q587.822,454.714,587.467,454.751Z" transform="translate(-517.572 -395.857)" fill="#3c094b"/>
      <path id="Path_270" data-name="Path 270" d="M619.426,446.654a18.744,18.744,0,0,1-5.648-.529l-.132-.033-.178-.05a10.24,10.24,0,0,1-6.286-4.765,10.561,10.561,0,0,1-1.348-6.078,13.388,13.388,0,0,1,1.028-4.158,26.04,26.04,0,0,1,1.135-2.377l.119-.22c.016-.03.033-.059.052-.088,0,0,.167-.259.178-.28l.016-.169c.134-1.193.287-2.385.457-3.565.089-.615.171-1.234.248-1.85a10.61,10.61,0,0,1-1.571-8.252A11.121,11.121,0,0,1,610,409.4c-.08-.222-.155-.448-.222-.675l-.023-.079a11.091,11.091,0,0,1,2.147-10.188,13.711,13.711,0,0,1,3.641-3.082,14.531,14.531,0,0,1,5.119-1.8l.2-.029q.8-.107,1.572-.147a17.23,17.23,0,0,1,6.34.839,12.5,12.5,0,0,1,7.336,6.132l.132.257a1.068,1.068,0,0,1,.048.1l.108.265a10.759,10.759,0,0,1,.676,5.91,12.256,12.256,0,0,1-1.61,4.344,10.459,10.459,0,0,1,.534,3.088,17.245,17.245,0,0,1-.285,3.762c-.183,1.152-.409,2.465-.669,3.905q-.387,2.13-.813,4.384c-.178.944-.326,1.816-.439,2.6a11.387,11.387,0,0,1,1.136,4.917,12.082,12.082,0,0,1-1.384,5.646,12.617,12.617,0,0,1-9.395,6.641l-.144.02-.19.02q-2.188.228-3.863.39C619.775,446.629,619.6,446.642,619.426,446.654Z" transform="translate(-530.359 -391.292)" fill="#3c094b"/>
      <path id="Path_274" data-name="Path 274" d="M646.913,450.579q-.559.009-1.122,0a21.618,21.618,0,0,1-8.121-1.736,17.382,17.382,0,0,1-8.027-6.238,19.257,19.257,0,0,1-3.3-8.923l-.012-.1a27.965,27.965,0,0,1,.289-7.653A25.234,25.234,0,0,1,629.2,418.4a22.939,22.939,0,0,1,5.372-6.651,22.242,22.242,0,0,1,8.7-4.516l.167-.046.237-.055a33.218,33.218,0,0,1,6.979-.817,24.757,24.757,0,0,1,7.322,1,19.529,19.529,0,0,1,6.677,3.472,15.228,15.228,0,0,1,4.8,6.686,15.528,15.528,0,0,1,.085,10.64l-.081.227c-.023.052-.044.106-.066.159a16.262,16.262,0,0,1-1.43,2.734,10.944,10.944,0,0,1,.17,4.222q-.053.359-.105.719a1.331,1.331,0,0,1-.072.281q-.129.34-.257.68a18.8,18.8,0,0,1-5.916,8.168,23.45,23.45,0,0,1-7.747,4.129A25.506,25.506,0,0,1,646.913,450.579Z" transform="translate(-536.836 -395.404)" fill="#3c094b"/>
    </g>
  </g>
  <g id="Group_81" data-name="Group 81" transform="translate(7.543 46.947)">
    <g id="Group_80" data-name="Group 80" transform="translate(0 0)">
      <path id="Path_286" data-name="Path 286" d="M509.573,426.392a2.974,2.974,0,0,0-.246-.91,1.205,1.205,0,0,0-.687-.535,3.874,3.874,0,0,1-1.8-1.208,2.566,2.566,0,0,1-.549-1.644,3.319,3.319,0,0,1,.684-1.836,6.5,6.5,0,0,1,1.969-1.734A26.78,26.78,0,0,1,514,416.4a27.32,27.32,0,0,1,5.081-.948,4.481,4.481,0,0,1,3.145.171,2.485,2.485,0,0,1,1.249,1.775,4.9,4.9,0,0,1-.3,2.547,8.085,8.085,0,0,1-1.541,2.566,3,3,0,0,0-.744,1.174,3.774,3.774,0,0,0-.15,1.21q.026,2.029.081,4.292t.123,4.553q.069,2.289.134,4.525t.121,4.261q.061.791.132,1.606a7.19,7.19,0,0,0,.275,1.494,4.955,4.955,0,0,0,.547,1.219,2.58,2.58,0,0,0,.97.886,2.815,2.815,0,0,1,1.585,1.958,5.272,5.272,0,0,1-.48,2.836,4.826,4.826,0,0,1-2,1.571,23.222,23.222,0,0,1-3.482,1.388,27.075,27.075,0,0,1-4.05.939,14.5,14.5,0,0,1-3.731.145,3.063,3.063,0,0,1-2.055-1.449c-.247-.6-.047-1.51.611-2.722l-.026-.1a.048.048,0,0,1,.04-.064,3.572,3.572,0,0,0,1.088-2.217q.076-1.151.051-2.386-.094-2.187-.246-4.765t-.227-4.768q-.082-1.272-.134-2.8t-.141-3.09q-.088-1.567-.181-3.052T509.573,426.392Z" transform="translate(-506.293 -406.264)" fill="#82400f"/>
      <path id="Path_287" data-name="Path 287" d="M541.771,444.208c-.5,1.056,1.131,2.02,1.284,2.631a2.208,2.208,0,0,0,1.589,1.4,7.486,7.486,0,0,0,2.179.365,8.239,8.239,0,0,0,2.5-.267,5.327,5.327,0,0,0,2.105-1.088,2.924,2.924,0,0,0,1.008-2.111,1.834,1.834,0,0,0-1.227-2.021q-1.822-.323-3.494-.527t-3.161-.432q-1.49-.227-2.885-.517a16.854,16.854,0,0,1-2.672-.783,5.2,5.2,0,0,1-2.5-2.621,6.771,6.771,0,0,1-.431-3.517,9.166,9.166,0,0,1,1.4-3.7,10.526,10.526,0,0,1,2.989-3.086,15.1,15.1,0,0,1,4.074-2.086,24.569,24.569,0,0,1,5.612-1.294,20.66,20.66,0,0,1,5.841.147,9.32,9.32,0,0,1,4.738,2.175,3.361,3.361,0,0,1,1.016,2.736,5.114,5.114,0,0,1-1.4,3.088,7.033,7.033,0,0,1-1.687,1.258,8,8,0,0,1-1.954.751,6.981,6.981,0,0,1-1.986.183,3.615,3.615,0,0,1-1.737-.513,2.29,2.29,0,0,1-1.228-1.972,3.036,3.036,0,0,0-.23-1.208,1.2,1.2,0,0,0-.886-.727,2.783,2.783,0,0,0-2.113.255,4.481,4.481,0,0,0-1.627,1.4,2.8,2.8,0,0,0-.529,1.8,1.687,1.687,0,0,0,1.16,1.441,6.666,6.666,0,0,0,1.939.643,19.979,19.979,0,0,0,2.031.237q1.019.067,2.037.139t1.992.234a8.481,8.481,0,0,1,4.121,1.664,6.767,6.767,0,0,1,2.3,3.759,5.712,5.712,0,0,1,.1,2.551,12.759,12.759,0,0,1-.789,2.738,12.211,12.211,0,0,1-1.424,2.547,9.263,9.263,0,0,1-1.827,1.93,11.991,11.991,0,0,1-3.569,2.019,29.8,29.8,0,0,1-5.069,1.472,31.73,31.73,0,0,1-5.413.618,12.5,12.5,0,0,1-4.567-.609,4.014,4.014,0,0,1-2.184-1.071,5.429,5.429,0,0,1-1.638-4.523A5.946,5.946,0,0,1,537.9,445.7a8.239,8.239,0,0,1,1.879-1.019,7.292,7.292,0,0,1,1.991-.471C542.427,444.152,541.224,444.066,541.771,444.208Z" transform="translate(-515.576 -409.172)" fill="#82400f"/>
      <path id="Path_288" data-name="Path 288" d="M584.119,438.039c-.564,1.021.534,1.846.647,2.465s.611,1.119,1.49,1.5a7.473,7.473,0,0,0,2.146.508,8.222,8.222,0,0,0,2.5-.1,5.307,5.307,0,0,0,2.167-.947,2.922,2.922,0,0,0,1.141-2.04,1.834,1.834,0,0,0-1.089-2.1q-1.794-.443-3.444-.757t-3.119-.639q-1.468-.325-2.838-.706a16.832,16.832,0,0,1-2.609-.957,5.2,5.2,0,0,1-2.316-2.781,6.786,6.786,0,0,1-.2-3.539,9.165,9.165,0,0,1,1.635-3.6,10.519,10.519,0,0,1,3.178-2.882,15.021,15.021,0,0,1,4.191-1.812,24.421,24.421,0,0,1,5.672-.922,20.562,20.562,0,0,1,5.806.532,9.3,9.3,0,0,1,4.578,2.482,3.368,3.368,0,0,1,.833,2.8,5.12,5.12,0,0,1-1.6,2.988,7,7,0,0,1-1.763,1.144,7.9,7.9,0,0,1-2,.621,6.921,6.921,0,0,1-1.99.052,3.607,3.607,0,0,1-1.7-.626,2.292,2.292,0,0,1-1.094-2.048,3.047,3.047,0,0,0-.15-1.221,1.2,1.2,0,0,0-.835-.784,2.771,2.771,0,0,0-2.121.115,4.468,4.468,0,0,0-1.711,1.291,2.794,2.794,0,0,0-.644,1.757,1.69,1.69,0,0,0,1.06,1.515,6.666,6.666,0,0,0,1.889.77,19.941,19.941,0,0,0,2.006.371q1.011.133,2.019.272t1.969.364a8.469,8.469,0,0,1,4,1.932,6.771,6.771,0,0,1,2.042,3.9,5.733,5.733,0,0,1-.064,2.552,12.842,12.842,0,0,1-.965,2.68,12.187,12.187,0,0,1-1.585,2.448,9.269,9.269,0,0,1-1.945,1.805,11.966,11.966,0,0,1-3.687,1.78,29.628,29.628,0,0,1-5.142,1.135,31.614,31.614,0,0,1-5.429.259,12.424,12.424,0,0,1-4.505-.91,4.008,4.008,0,0,1-2.1-1.213,5.429,5.429,0,0,1-1.191-2.1,5.506,5.506,0,0,1-.145-2.518,5.943,5.943,0,0,1,2.6-3.852,8.233,8.233,0,0,1,1.937-.892,7.273,7.273,0,0,1,2.012-.339C584.315,437.782,583.585,437.861,584.119,438.039Z" transform="translate(-528.762 -407.36)" fill="#82400f"/>
      <path id="Path_289" data-name="Path 289" d="M619.246,440.807a2.145,2.145,0,0,1-1.376-.891,2.339,2.339,0,0,1-.271-1.4,5.486,5.486,0,0,1,.456-1.69,18.279,18.279,0,0,1,.814-1.664,8.105,8.105,0,0,0,1.348-3.722q.208-1.641.472-3.313t.479-3.366c.016-.281.026-.544.028-.789s.012-.49.032-.737a2.017,2.017,0,0,0-.467-1.148,4.576,4.576,0,0,1-.676-.923,2.832,2.832,0,0,1-.715-2.573,3.943,3.943,0,0,1,1.939-2.34,13.588,13.588,0,0,1,2.774-1.045,12.4,12.4,0,0,1,3.182-.446,5.4,5.4,0,0,1,2.616.572,2.092,2.092,0,0,1,1.076,1.992,9.641,9.641,0,0,1-.147,2.208q-.229,1.636-.57,3.722t-.719,4.308q-.379,2.221-.557,3.96a4.593,4.593,0,0,0,.708,3.213,3.365,3.365,0,0,1,.6,1.831,3.819,3.819,0,0,1-.415,1.829,4.189,4.189,0,0,1-1.28,1.483,4.4,4.4,0,0,1-2,.8q-2.165.233-3.827.4A10.617,10.617,0,0,1,619.246,440.807Zm12.468-34.256a3.192,3.192,0,0,1,.248,1.771,4.191,4.191,0,0,1-.637,1.679,4.525,4.525,0,0,1-1.384,1.348,5.569,5.569,0,0,1-1.943.779,7.881,7.881,0,0,1-3.964-.457,3.724,3.724,0,0,1-2.351-2.525,3.453,3.453,0,0,1-.051-1.649,3.361,3.361,0,0,1,.735-1.49,5.172,5.172,0,0,1,1.367-1.135,5.271,5.271,0,0,1,1.834-.632,8.13,8.13,0,0,1,3.641.278A4.208,4.208,0,0,1,631.715,406.551Z" transform="translate(-541.647 -402.734)" fill="#82400f"/>
      <path id="Path_290" data-name="Path 290" d="M658.279,433.508a10.564,10.564,0,0,1,2.877.216,4.527,4.527,0,0,1,2.106,1.037,2.28,2.28,0,0,1,.625,2.1,10.227,10.227,0,0,1-3.28,4.581,15.149,15.149,0,0,1-5.047,2.678,17.674,17.674,0,0,1-5.682.786,13.619,13.619,0,0,1-5.225-1.092,9.132,9.132,0,0,1-4.416-3.292,10.823,10.823,0,0,1-1.818-5.159,19.891,19.891,0,0,1,.3-5.489,17.6,17.6,0,0,1,1.875-5.214,15.211,15.211,0,0,1,3.578-4.32,13.85,13.85,0,0,1,5.374-2.731,24.279,24.279,0,0,1,5.087-.6,15.863,15.863,0,0,1,4.647.61,11.042,11.042,0,0,1,3.751,1.9,7.432,7.432,0,0,1,2.362,3.221,7.86,7.86,0,0,1,.543,2.574,7.374,7.374,0,0,1-.4,2.716,6.219,6.219,0,0,1-1.817,2.62,6.047,6.047,0,0,1-3.038,1.154,40.9,40.9,0,0,1-6.345.541q-3.3.033-6.177.21a4.835,4.835,0,0,0-.214,3.461,3.283,3.283,0,0,0,1.741,1.924,3.783,3.783,0,0,0,2.637.111,4.418,4.418,0,0,0,2.455-1.94.586.586,0,0,0-.327-.285m2.946-8.525a3.719,3.719,0,0,0,.158-2.409,2.8,2.8,0,0,0-1.142-1.513,3.634,3.634,0,0,0-1.949-.535,4.786,4.786,0,0,0-2.19.5,5.125,5.125,0,0,0-1.833,1.548,5.265,5.265,0,0,0-.97,2.611q.825-.016,1.871-.061t2.119-.056q1.074-.012,2.119-.046T657.391,427.306Z" transform="translate(-548.241 -406.819)" fill="#82400f"/>
      <path id="Path_291" data-name="Path 291" d="M696.341,402.366q2.527.243,5,.456a38.638,38.638,0,0,1,4.745.7,23.44,23.44,0,0,1,4.281,1.341,11.92,11.92,0,0,1,3.591,2.368,7.459,7.459,0,0,1,1.838,3.277,13.15,13.15,0,0,1,.384,3.9,23.349,23.349,0,0,1-.585,4.2q-.493,2.135-1.134,4.149t-1.276,3.769q-.636,1.753-1.028,3.031a20.766,20.766,0,0,1-3.214,6.1,13.444,13.444,0,0,1-4.293,3.584,16.919,16.919,0,0,1-5.365,1.685,38.672,38.672,0,0,1-6.434.358q-1.689-.087-3.462-.059t-3.515-.006q-1.744-.035-3.4-.21a16.86,16.86,0,0,1-3.132-.623,4.638,4.638,0,0,1-2.02-1.108,2.816,2.816,0,0,1-.827-1.635,3.7,3.7,0,0,1,.347-1.984,6.781,6.781,0,0,1,1.614-2.148q.273-.257.547-.487a2.623,2.623,0,0,1,.6-.381,2.493,2.493,0,0,0,1.072-.972,4.2,4.2,0,0,0,.435-1.3q.806-4.432,1.635-8.6t1.627-8.333a4.13,4.13,0,0,0-.012-1.546,2.137,2.137,0,0,0-.869-1.2,3.47,3.47,0,0,1-1.37-1.79,4.725,4.725,0,0,1-.058-2.332,4.67,4.67,0,0,1,3.488-3.831,12.907,12.907,0,0,1,2.727-.561,23.376,23.376,0,0,1,2.744-.1q1.354.033,2.676.175t2.586.212A.148.148,0,0,1,696.341,402.366Zm-4.894,30.467a8.5,8.5,0,0,0,5.541-.6q2.506-1.214,3.849-4.9.28-.925.736-2.338T702.5,422q.471-1.593.817-3.274a17.067,17.067,0,0,0,.367-3.149,7.713,7.713,0,0,0-.377-2.625,3.133,3.133,0,0,0-1.437-1.752,8.153,8.153,0,0,0-2.537-.714,16.5,16.5,0,0,0-2.8-.191q-1.34,5.694-2.594,11.263T691.447,432.833Z" transform="translate(-560.35 -402.074)" fill="#841447"/>
      <path id="Path_292" data-name="Path 292" d="M729.482,442.8a2.145,2.145,0,0,1-1.2-1.116,2.34,2.34,0,0,1-.026-1.422,5.478,5.478,0,0,1,.742-1.586q.536-.816,1.09-1.5a8.1,8.1,0,0,0,1.973-3.433q.488-1.58,1.039-3.182t1.055-3.232q.1-.41.164-.772t.159-.721a2.013,2.013,0,0,0-.262-1.212,4.567,4.567,0,0,1-.507-1.026,2.831,2.831,0,0,1-.259-2.658,3.942,3.942,0,0,1,2.317-1.969,13.673,13.673,0,0,1,2.915-.549,12.44,12.44,0,0,1,3.216.112,5.426,5.426,0,0,1,2.482,1.017,2.092,2.092,0,0,1,.716,2.149,9.65,9.65,0,0,1-.528,2.149q-.51,1.571-1.207,3.567t-1.455,4.117q-.758,2.122-1.236,3.8a4.587,4.587,0,0,0,.141,3.287,3.355,3.355,0,0,1,.278,1.907,3.8,3.8,0,0,1-.726,1.73,4.19,4.19,0,0,1-1.52,1.238,4.422,4.422,0,0,1-2.111.437q-2.176-.145-3.843-.267A10.61,10.61,0,0,1,729.482,442.8Zm18.227-31.578a3.176,3.176,0,0,1-.061,1.787,4.191,4.191,0,0,1-.919,1.543,4.538,4.538,0,0,1-1.6,1.088,5.6,5.6,0,0,1-2.052.431,7.9,7.9,0,0,1-3.83-1.136,3.725,3.725,0,0,1-1.88-2.9,3.437,3.437,0,0,1,.235-1.633,3.361,3.361,0,0,1,.983-1.341,5.163,5.163,0,0,1,1.544-.88,5.284,5.284,0,0,1,1.918-.3,8.157,8.157,0,0,1,3.543.905A4.21,4.21,0,0,1,747.709,411.226Z" transform="translate(-576.77 -403.92)" fill="#841447"/>
      <path id="Path_293" data-name="Path 293" d="M771.717,440.679a5.978,5.978,0,0,1,2.758.9,3.534,3.534,0,0,1,1.49,2.006,4.358,4.358,0,0,1-.4,2.989,11.811,11.811,0,0,1-3.837,4.482,12.8,12.8,0,0,1-4.844,1.992,15.454,15.454,0,0,1-5.224.043,22.24,22.24,0,0,1-5.043-1.4,10.543,10.543,0,0,1-4.855-4.536,12.909,12.909,0,0,1-1.236-6.761,19.2,19.2,0,0,1,1.681-5.747,18.194,18.194,0,0,1,3.43-4.982,17.339,17.339,0,0,1,5-3.574,16.634,16.634,0,0,1,6.291-1.578,19.186,19.186,0,0,1,3.97.281,19.907,19.907,0,0,1,4.059,1.129,14.048,14.048,0,0,1,3.391,1.9,6.353,6.353,0,0,1,2.048,2.519,4.205,4.205,0,0,1,.078,3,7.913,7.913,0,0,1-2.54,3.352,6.482,6.482,0,0,1-6.446,1.167,2.673,2.673,0,0,1-1.872-1.97,3.735,3.735,0,0,1,.71-3.012,4.315,4.315,0,0,0,.458-.532q.185-.26.478-.635a5.957,5.957,0,0,0-3.64-.055,7.821,7.821,0,0,0-3.019,1.794,11.351,11.351,0,0,0-2.219,2.939,12.46,12.46,0,0,0-1.247,3.436,8.944,8.944,0,0,0-.068,3.326,4.446,4.446,0,0,0,1.275,2.529,3.389,3.389,0,0,0,2.607.762,4.445,4.445,0,0,0,2.676-1.279c.45-.491,1.425.822,1.472.441m-4.459,3.483" transform="translate(-583.867 -409.196)" fill="#841447"/>
      <path id="Path_294" data-name="Path 294" d="M809.387,450.733a10.7,10.7,0,0,1,2.767.885,4.565,4.565,0,0,1,1.822,1.5,2.27,2.27,0,0,1,.123,2.19A10.242,10.242,0,0,1,809.817,459a15.3,15.3,0,0,1-5.565,1.419,17.9,17.9,0,0,1-5.743-.567,13.738,13.738,0,0,1-4.854-2.284,9.161,9.161,0,0,1-3.548-4.233,10.784,10.784,0,0,1-.573-5.442,19.774,19.774,0,0,1,1.567-5.27,17.562,17.562,0,0,1,3.046-4.633,15.231,15.231,0,0,1,4.5-3.364,13.951,13.951,0,0,1,5.891-1.4,24.631,24.631,0,0,1,5.117.611,16.035,16.035,0,0,1,4.407,1.683,11.139,11.139,0,0,1,3.23,2.732,7.435,7.435,0,0,1,1.564,3.689,7.78,7.78,0,0,1-.068,2.63,7.3,7.3,0,0,1-1.026,2.547,6.221,6.221,0,0,1-2.391,2.121,6.12,6.12,0,0,1-3.246.409,41.562,41.562,0,0,1-6.338-.962q-3.232-.741-6.091-1.244a4.806,4.806,0,0,0-1.017,3.316,3.289,3.289,0,0,0,1.254,2.278,3.83,3.83,0,0,0,2.554.725,4.439,4.439,0,0,0,2.854-1.311.584.584,0,0,0-.253-.354m4.871-7.6a3.693,3.693,0,0,0,.716-2.3,2.8,2.8,0,0,0-.766-1.74,3.684,3.684,0,0,0-1.784-.978,4.838,4.838,0,0,0-2.259-.029,5.138,5.138,0,0,0-2.154,1.076,5.241,5.241,0,0,0-1.558,2.312q.812.176,1.844.379t2.087.442q1.053.238,2.085.452T809.963,444.494Z" transform="translate(-596.23 -411.969)" fill="#841447"/>
    </g>
  </g>
  <g id="Group_83" data-name="Group 83" transform="translate(7.021 45.128)">
    <g id="Group_82" data-name="Group 82">
      <path id="Path_300" data-name="Path 300" d="M508.777,422.949a2.961,2.961,0,0,0-.235-.913,1.207,1.207,0,0,0-.686-.543,3.89,3.89,0,0,1-1.8-1.229,2.537,2.537,0,0,1-.527-1.652,3.315,3.315,0,0,1,.724-1.829,6.613,6.613,0,0,1,2.022-1.713A27.535,27.535,0,0,1,513.42,413a28.074,28.074,0,0,1,5.157-.9,4.585,4.585,0,0,1,3.18.2A2.476,2.476,0,0,1,523,414.093a4.861,4.861,0,0,1-.343,2.544,8.116,8.116,0,0,1-1.6,2.552,3.006,3.006,0,0,0-.771,1.167,3.727,3.727,0,0,0-.171,1.208q-.006,2.031.014,4.3t.053,4.556q.032,2.291.062,4.529t.052,4.265q.05.792.106,1.609a7.117,7.117,0,0,0,.255,1.5,4.9,4.9,0,0,0,.536,1.225,2.581,2.581,0,0,0,.972.9,2.8,2.8,0,0,1,1.58,1.975,5.222,5.222,0,0,1-.536,2.834,4.962,4.962,0,0,1-2.066,1.552,24.033,24.033,0,0,1-3.57,1.356,28.068,28.068,0,0,1-4.14.9,15.015,15.015,0,0,1-3.8.105,3.074,3.074,0,0,1-2.062-1.473c-.24-.606-.018-1.512.674-2.718l-.024-.1a.047.047,0,0,1,.041-.063,3.589,3.589,0,0,0,1.149-2.207q.1-1.152.1-2.387-.055-2.19-.162-4.772t-.144-4.774q-.06-1.274-.086-2.8t-.088-3.093q-.061-1.569-.13-3.056T508.777,422.949Z" transform="translate(-505.528 -403.386)" fill="#f28a22"/>
      <path id="Path_302" data-name="Path 302" d="M542.841,441.241a3.9,3.9,0,0,0-.563,2.495q.221.918,1.6,1.416a7.752,7.752,0,0,0,2.212.383,8.557,8.557,0,0,0,2.544-.248,5.5,5.5,0,0,0,2.158-1.073,2.927,2.927,0,0,0,1.054-2.105,1.821,1.821,0,0,0-1.221-2.031q-1.849-.337-3.546-.555t-3.208-.457q-1.512-.239-2.925-.541a17.32,17.32,0,0,1-2.7-.807,5.189,5.189,0,0,1-2.5-2.645,6.678,6.678,0,0,1-.384-3.524,9.158,9.158,0,0,1,1.477-3.687,10.709,10.709,0,0,1,3.077-3.061,15.513,15.513,0,0,1,4.16-2.051,25.339,25.339,0,0,1,5.706-1.249,21.267,21.267,0,0,1,5.922.19,9.486,9.486,0,0,1,4.783,2.209,3.322,3.322,0,0,1,1,2.743,5.1,5.1,0,0,1-1.46,3.079,7.166,7.166,0,0,1-1.729,1.247,8.186,8.186,0,0,1-1.994.738,7.185,7.185,0,0,1-2.02.169,3.7,3.7,0,0,1-1.759-.525,2.272,2.272,0,0,1-1.222-1.982,3.009,3.009,0,0,0-.218-1.21,1.212,1.212,0,0,0-.891-.735,2.867,2.867,0,0,0-2.148.239,4.576,4.576,0,0,0-1.67,1.389,2.782,2.782,0,0,0-.561,1.792,1.681,1.681,0,0,0,1.159,1.451,6.807,6.807,0,0,0,1.961.658,20.406,20.406,0,0,0,2.06.253q1.035.075,2.068.154t2.021.249a8.662,8.662,0,0,1,4.17,1.692,6.712,6.712,0,0,1,2.293,3.776,5.628,5.628,0,0,1,.076,2.553,12.668,12.668,0,0,1-.835,2.733A12.207,12.207,0,0,1,559.3,446.9a9.457,9.457,0,0,1-1.885,1.918,12.366,12.366,0,0,1-3.663,2,30.785,30.785,0,0,1-5.186,1.436,32.83,32.83,0,0,1-5.524.577,12.867,12.867,0,0,1-4.643-.648,4.082,4.082,0,0,1-2.207-1.09,5.408,5.408,0,0,1-.6-7.057,5.485,5.485,0,0,1,1.462-1.482,8.509,8.509,0,0,1,1.926-1,7.546,7.546,0,0,1,2.031-.455A5.449,5.449,0,0,1,542.841,441.241Z" transform="translate(-514.749 -406.388)" fill="#f28a22"/>
      <path id="Path_304" data-name="Path 304" d="M585.525,435.219a3.892,3.892,0,0,0-.714,2.454q.164.93,1.5,1.512a7.7,7.7,0,0,0,2.181.519,8.472,8.472,0,0,0,2.549-.09,5.475,5.475,0,0,0,2.215-.937,2.923,2.923,0,0,0,1.178-2.035,1.822,1.822,0,0,0-1.092-2.1q-1.82-.451-3.5-.773t-3.167-.655q-1.49-.333-2.88-.722a17.18,17.18,0,0,1-2.643-.972,5.185,5.185,0,0,1-2.325-2.794,6.691,6.691,0,0,1-.167-3.541,9.158,9.158,0,0,1,1.7-3.588,10.687,10.687,0,0,1,3.251-2.864,15.443,15.443,0,0,1,4.269-1.789,25.208,25.208,0,0,1,5.761-.894,21.205,21.205,0,0,1,5.889.556,9.471,9.471,0,0,1,4.631,2.5,3.327,3.327,0,0,1,.83,2.8,5.1,5.1,0,0,1-1.645,2.983,7.131,7.131,0,0,1-1.8,1.138,8.186,8.186,0,0,1-2.032.613,7.168,7.168,0,0,1-2.022.044,3.7,3.7,0,0,1-1.721-.633,2.274,2.274,0,0,1-1.1-2.054,3.016,3.016,0,0,0-.143-1.222,1.209,1.209,0,0,0-.843-.788,2.857,2.857,0,0,0-2.154.105,4.563,4.563,0,0,0-1.749,1.283,2.778,2.778,0,0,0-.668,1.754,1.681,1.681,0,0,0,1.064,1.521,6.8,6.8,0,0,0,1.913.779,20.516,20.516,0,0,0,2.036.379q1.027.138,2.05.281t2,.373a8.647,8.647,0,0,1,4.05,1.947,6.713,6.713,0,0,1,2.052,3.91,5.624,5.624,0,0,1-.081,2.553,12.725,12.725,0,0,1-1,2.677,12.178,12.178,0,0,1-1.632,2.442,9.412,9.412,0,0,1-2,1.8,12.337,12.337,0,0,1-3.773,1.765,30.692,30.692,0,0,1-5.253,1.112,32.713,32.713,0,0,1-5.538.233,12.81,12.81,0,0,1-4.583-.935,4.07,4.07,0,0,1-2.13-1.226,5.416,5.416,0,0,1-.164-7.081,5.463,5.463,0,0,1,1.546-1.388,8.457,8.457,0,0,1,1.979-.882,7.522,7.522,0,0,1,2.05-.328A5.408,5.408,0,0,1,585.525,435.219Z" transform="translate(-528.199 -404.656)" fill="#f28a22"/>
      <path id="Path_306" data-name="Path 306" d="M619.9,438.1a2.182,2.182,0,0,1-1.4-.9,2.305,2.305,0,0,1-.268-1.4,5.447,5.447,0,0,1,.476-1.689,18.58,18.58,0,0,1,.839-1.662,8.019,8.019,0,0,0,1.394-3.718q.221-1.641.5-3.313t.506-3.365c.018-.28.029-.543.033-.789s.014-.491.036-.737a1.992,1.992,0,0,0-.469-1.15,4.563,4.563,0,0,1-.682-.925,2.8,2.8,0,0,1-.712-2.575,3.967,3.967,0,0,1,1.982-2.334,13.927,13.927,0,0,1,2.82-1.036,12.7,12.7,0,0,1,3.233-.438,5.554,5.554,0,0,1,2.654.579,2.084,2.084,0,0,1,1.085,1.994,9.563,9.563,0,0,1-.158,2.208q-.24,1.636-.592,3.721t-.749,4.306q-.394,2.22-.583,3.959a4.518,4.518,0,0,0,.707,3.215,3.316,3.316,0,0,1,.607,1.832,3.757,3.757,0,0,1-.43,1.829,4.224,4.224,0,0,1-1.311,1.48,4.546,4.546,0,0,1-2.044.791q-2.21.227-3.9.392A11.017,11.017,0,0,1,619.9,438.1Zm12.833-34.225a3.152,3.152,0,0,1,.246,1.771,4.169,4.169,0,0,1-.652,1.677,4.576,4.576,0,0,1-1.409,1.346,5.7,5.7,0,0,1-1.975.774,8.091,8.091,0,0,1-4.02-.467,3.734,3.734,0,0,1-2.373-2.533,3.4,3.4,0,0,1-.044-1.649,3.355,3.355,0,0,1,.752-1.488,5.264,5.264,0,0,1,1.391-1.131,5.4,5.4,0,0,1,1.861-.627,8.359,8.359,0,0,1,3.689.288A4.251,4.251,0,0,1,632.733,403.877Z" transform="translate(-541.326 -400.062)" fill="#f28a22"/>
      <path id="Path_308" data-name="Path 308" d="M649.413,429.917a4.755,4.755,0,0,0-.225,3.461,3.3,3.3,0,0,0,1.771,1.926,3.918,3.918,0,0,0,2.686.113,4.481,4.481,0,0,0,2.5-1.939.588.588,0,0,0-.332-.285,1.026,1.026,0,0,1-.444-.388c-.3-.1-.416-.24-.363-.415a1.06,1.06,0,0,1,.381-.5,3.7,3.7,0,0,1,.686-.425,1.609,1.609,0,0,1,.662-.188,16.675,16.675,0,0,1,2.982-.4,10.967,10.967,0,0,1,2.928.216,4.639,4.639,0,0,1,2.145,1.036,2.255,2.255,0,0,1,.639,2.1,10.224,10.224,0,0,1-3.339,4.582,15.506,15.506,0,0,1-5.146,2.677,18.325,18.325,0,0,1-5.8.783,14.082,14.082,0,0,1-5.325-1.1,9.265,9.265,0,0,1-4.493-3.3,10.673,10.673,0,0,1-1.833-5.163,19.546,19.546,0,0,1,.32-5.489,17.48,17.48,0,0,1,1.923-5.211,15.326,15.326,0,0,1,3.648-4.314,14.191,14.191,0,0,1,5.461-2.726,25.087,25.087,0,0,1,5.165-.594,16.354,16.354,0,0,1,4.716.611,11.283,11.283,0,0,1,3.81,1.9,7.444,7.444,0,0,1,2.4,3.22,7.744,7.744,0,0,1,.555,2.574,7.253,7.253,0,0,1-.4,2.716,5.505,5.505,0,0,1-4.936,3.776,42.171,42.171,0,0,1-6.458.54Q652.347,429.744,649.413,429.917Zm9.4-5.249a3.665,3.665,0,0,0,.162-2.409,2.8,2.8,0,0,0-1.161-1.513,3.742,3.742,0,0,0-1.981-.536,4.933,4.933,0,0,0-2.225.5,5.117,5.117,0,0,0-2.856,4.157q.84-.016,1.9-.059t2.155-.055q1.091-.012,2.155-.046T658.815,424.668Z" transform="translate(-548.063 -404.161)" fill="#f28a22"/>
      <path id="Path_309" data-name="Path 309" d="M698.349,399.687q2.562.236,5.066.441a39.783,39.783,0,0,1,4.812.685,24.137,24.137,0,0,1,4.345,1.324,12.138,12.138,0,0,1,3.655,2.354,7.468,7.468,0,0,1,1.887,3.27,12.989,12.989,0,0,1,.418,3.9,23.074,23.074,0,0,1-.563,4.206q-.485,2.137-1.121,4.155t-1.27,3.775q-.634,1.756-1.023,3.036a20.544,20.544,0,0,1-3.229,6.109,13.549,13.549,0,0,1-4.351,3.6,17.427,17.427,0,0,1-5.459,1.7,40.021,40.021,0,0,1-6.559.373q-1.725-.083-3.532-.052t-3.586,0q-1.778-.034-3.47-.206a17.405,17.405,0,0,1-3.2-.62,4.743,4.743,0,0,1-2.061-1.107,2.8,2.8,0,0,1-.845-1.634,3.639,3.639,0,0,1,.351-1.985,6.806,6.806,0,0,1,1.642-2.149q.277-.257.556-.488a2.7,2.7,0,0,1,.61-.381,2.522,2.522,0,0,0,1.09-.973,4.125,4.125,0,0,0,.441-1.3q.813-4.432,1.647-8.6t1.635-8.336a4.068,4.068,0,0,0-.015-1.546,2.138,2.138,0,0,0-.885-1.2,3.486,3.486,0,0,1-1.394-1.788,5.079,5.079,0,0,1,3.466-6.166,13.242,13.242,0,0,1,2.762-.566,24.162,24.162,0,0,1,2.78-.1q1.373.03,2.712.169t2.621.205A.145.145,0,0,1,698.349,399.687ZM693.5,430.165a8.784,8.784,0,0,0,5.64-.609q2.545-1.22,3.893-4.907.28-.926.737-2.339t.927-3.008q.471-1.595.813-3.277a16.85,16.85,0,0,0,.355-3.15,7.624,7.624,0,0,0-.4-2.624A3.154,3.154,0,0,0,704,408.5a8.4,8.4,0,0,0-2.577-.708,16.984,16.984,0,0,0-2.841-.183q-1.335,5.7-2.587,11.27T693.5,430.165Z" transform="translate(-560.392 -399.409)" fill="#ed4279"/>
      <path id="Path_310" data-name="Path 310" d="M732.307,440.01a2.178,2.178,0,0,1-1.233-1.111,2.3,2.3,0,0,1-.037-1.423,5.435,5.435,0,0,1,.744-1.589,18.084,18.084,0,0,1,1.1-1.5,8.029,8.029,0,0,0,1.982-3.441q.485-1.583,1.032-3.187t1.047-3.238q.1-.41.16-.773c.042-.241.095-.482.156-.721a1.991,1.991,0,0,0-.276-1.21,4.557,4.557,0,0,1-.523-1.024,2.8,2.8,0,0,1-.283-2.657,3.966,3.966,0,0,1,2.336-1.979,13.976,13.976,0,0,1,2.955-.564,12.775,12.775,0,0,1,3.264.095,5.573,5.573,0,0,1,2.528,1,2.082,2.082,0,0,1,.747,2.145,9.492,9.492,0,0,1-.515,2.153q-.5,1.574-1.192,3.575t-1.44,4.126q-.751,2.127-1.221,3.812a4.512,4.512,0,0,0,.175,3.287,3.311,3.311,0,0,1,.3,1.906,3.743,3.743,0,0,1-.723,1.734,4.227,4.227,0,0,1-1.537,1.247,4.563,4.563,0,0,1-2.149.447q-2.219-.135-3.919-.25A11.036,11.036,0,0,1,732.307,440.01Zm18.249-31.677a3.137,3.137,0,0,1-.045,1.788,4.147,4.147,0,0,1-.917,1.549,4.588,4.588,0,0,1-1.611,1.1,5.725,5.725,0,0,1-2.077.442,8.1,8.1,0,0,1-3.9-1.116,3.732,3.732,0,0,1-1.93-2.886,3.4,3.4,0,0,1,.225-1.634,3.354,3.354,0,0,1,.985-1.346,5.228,5.228,0,0,1,1.557-.889,5.394,5.394,0,0,1,1.941-.315,8.362,8.362,0,0,1,3.6.886A4.247,4.247,0,0,1,750.556,408.333Z" transform="translate(-577.133 -401.193)" fill="#ed4279"/>
      <path id="Path_311" data-name="Path 311" d="M774.627,428.64a6.139,6.139,0,0,0-3.7-.027,7.922,7.922,0,0,0-3.045,1.816,11.3,11.3,0,0,0-2.22,2.955,12.324,12.324,0,0,0-1.228,3.446,8.792,8.792,0,0,0-.029,3.328,4.447,4.447,0,0,0,1.328,2.521,3.509,3.509,0,0,0,2.663.745,4.526,4.526,0,0,0,2.707-1.3,2.531,2.531,0,0,0,.74-1.314,1.521,1.521,0,0,0-.564-1.2q-.288-.31-.525-.586a.994.994,0,0,1-.264-.465c-.018-.126.057-.247.225-.362a3.061,3.061,0,0,1,1.061-.309,10.86,10.86,0,0,1,3.425-.266,6.178,6.178,0,0,1,2.816.874,3.575,3.575,0,0,1,1.543,2,4.286,4.286,0,0,1-.36,2.993A11.75,11.75,0,0,1,775.363,448a13.05,13.05,0,0,1-4.907,2.029,16.01,16.01,0,0,1-5.323.079,23.089,23.089,0,0,1-5.156-1.372,10.726,10.726,0,0,1-5-4.508,12.747,12.747,0,0,1-1.328-6.756,18.946,18.946,0,0,1,1.652-5.758,18.128,18.128,0,0,1,3.435-5,17.52,17.52,0,0,1,5.038-3.608,17.043,17.043,0,0,1,6.364-1.623,19.788,19.788,0,0,1,4.029.251,20.541,20.541,0,0,1,4.13,1.1,14.424,14.424,0,0,1,3.464,1.868,6.43,6.43,0,0,1,2.112,2.5,4.158,4.158,0,0,1,.122,3,7.859,7.859,0,0,1-2.53,3.375,6.64,6.64,0,0,1-6.532,1.22,2.711,2.711,0,0,1-1.928-1.957,3.683,3.683,0,0,1,.682-3.019,4.272,4.272,0,0,0,.458-.536C774.273,429.105,774.433,428.892,774.627,428.64Z" transform="translate(-584.34 -406.413)" fill="#ed4279"/>
      <path id="Path_312" data-name="Path 312" d="M803.751,444.149a4.734,4.734,0,0,0-.98,3.328,3.311,3.311,0,0,0,1.314,2.268,3.956,3.956,0,0,0,2.61.7,4.5,4.5,0,0,0,2.88-1.34.588.588,0,0,0-.263-.351,1.035,1.035,0,0,1-.35-.477q-.4-.246-.265-.484a1.052,1.052,0,0,1,.483-.405,3.7,3.7,0,0,1,.766-.264,1.62,1.62,0,0,1,.69-.038,16.8,16.8,0,0,1,3.015.262,11.117,11.117,0,0,1,2.828.857,4.676,4.676,0,0,1,1.879,1.485,2.246,2.246,0,0,1,.167,2.19,10.231,10.231,0,0,1-4.284,3.733,15.66,15.66,0,0,1-5.637,1.477,18.568,18.568,0,0,1-5.858-.513,14.209,14.209,0,0,1-4.98-2.244,9.286,9.286,0,0,1-3.678-4.205,10.642,10.642,0,0,1-.664-5.44,19.482,19.482,0,0,1,1.516-5.285,17.453,17.453,0,0,1,3.026-4.662,15.344,15.344,0,0,1,4.519-3.407,14.27,14.27,0,0,1,5.951-1.457,25.342,25.342,0,0,1,5.2.558,16.537,16.537,0,0,1,4.5,1.636,11.381,11.381,0,0,1,3.323,2.7,7.462,7.462,0,0,1,1.653,3.673,7.692,7.692,0,0,1-.019,2.633,7.218,7.218,0,0,1-.992,2.562,6.209,6.209,0,0,1-2.388,2.149,6.28,6.28,0,0,1-3.289.445,42.8,42.8,0,0,1-6.456-.9Q806.665,444.626,803.751,444.149Zm10.374-3.049a3.644,3.644,0,0,0,.686-2.315,2.805,2.805,0,0,0-.807-1.733,3.782,3.782,0,0,0-1.826-.959,4.991,4.991,0,0,0-2.292-.007,5.121,5.121,0,0,0-3.712,3.427q.828.169,1.879.361t2.126.421q1.073.229,2.124.431T814.125,441.1Z" transform="translate(-596.95 -409.087)" fill="#ed4279"/>
    </g>
  </g>
</svg>
